<?xml version="1.0" standalone="no"?>
<!DOCTYPE svg PUBLIC "-//W3C//DTD SVG 20010904//EN"
 "http://www.w3.org/TR/2001/REC-SVG-20010904/DTD/svg10.dtd">
<svg version="1.0" xmlns="http://www.w3.org/2000/svg"
 width="348.000000pt" height="348.000000pt" viewBox="0 0 348.000000 348.000000"
 preserveAspectRatio="xMidYMid meet">

<g transform="translate(0.000000,348.000000) scale(0.100000,-0.100000)"
fill="#000000" stroke="none">
<path d="M1635 3474 c-59 -15 -202 -81 -225 -104 -3 -3 -23 -18 -45 -35 -62
-46 -161 -143 -223 -220 -31 -38 -59 -72 -62 -75 -8 -8 -104 -153 -113 -170
-4 -8 -16 -28 -27 -45 -22 -33 -178 -344 -197 -391 -37 -95 -56 -141 -63 -159
-15 -35 -78 -228 -95 -290 -10 -33 -21 -71 -26 -85 -5 -14 -13 -45 -18 -70 -5
-25 -22 -101 -37 -170 -26 -118 -28 -139 -28 -375 l-1 -250 33 -110 c102 -339
323 -618 614 -774 94 -50 206 -96 307 -124 68 -19 101 -22 311 -22 267 0 302
6 477 81 17 8 35 14 40 14 5 0 49 23 98 51 298 171 502 423 603 744 63 200 66
549 6 813 -42 187 -93 364 -149 517 -20 55 -41 114 -46 132 -5 18 -14 35 -19
38 -6 4 -10 13 -10 21 0 21 -188 396 -202 402 -5 2 -8 8 -8 13 0 16 -103 170
-170 254 -158 198 -279 297 -455 371 -40 16 -226 29 -270 18z m301 -347 c169
-47 339 -186 403 -328 11 -26 33 -86 47 -135 24 -77 28 -111 32 -254 4 -157
-10 -324 -29 -335 -7 -5 -87 35 -209 102 -30 17 -84 46 -120 65 -154 83 -186
101 -195 108 -5 4 -39 23 -75 42 -116 63 -127 71 -151 106 -43 63 -20 155 48
195 49 28 130 33 173 9 38 -20 77 -70 87 -111 3 -14 -1 -44 -11 -70 -13 -35
-14 -46 -4 -53 24 -14 34 -8 57 33 46 81 9 209 -87 303 -73 72 -144 100 -257
100 -118 1 -193 -26 -258 -92 -141 -145 -140 -348 3 -488 40 -39 130 -101 130
-89 0 3 -15 25 -34 50 -38 49 -59 127 -54 196 3 41 28 70 28 32 0 -24 62 -99
125 -150 69 -56 175 -118 405 -236 107 -55 212 -111 232 -123 21 -13 40 -24
44 -24 3 0 45 -25 92 -56 251 -164 396 -422 396 -704 -1 -215 -75 -388 -234
-550 -216 -219 -489 -330 -810 -330 -449 0 -826 236 -973 610 -44 111 -61 212
-61 355 1 233 46 406 171 650 55 107 141 245 154 245 5 0 15 -15 23 -32 37
-88 156 -179 321 -248 55 -23 109 -45 120 -50 11 -5 31 -12 45 -16 38 -10 124
-68 148 -99 12 -16 37 -57 54 -93 27 -55 32 -77 32 -136 0 -98 -28 -150 -104
-189 -49 -25 -63 -28 -136 -25 -70 3 -85 7 -117 31 -96 73 -122 165 -73 253
14 25 26 48 26 49 0 11 -84 -33 -108 -56 -87 -85 -115 -285 -56 -401 66 -131
225 -258 359 -286 132 -28 191 -30 312 -8 111 19 199 65 287 147 100 93 138
171 144 289 5 99 -14 168 -75 271 -37 63 -198 239 -219 239 -7 0 -14 -27 -16
-62 -5 -59 -35 -148 -49 -148 -4 0 -17 24 -29 53 -50 117 -128 211 -228 274
-54 35 -195 103 -212 103 -24 0 -139 79 -201 138 -118 111 -169 226 -169 382
0 148 51 268 157 373 87 86 154 127 273 167 115 39 302 42 426 7z"/>
</g>
</svg>
