<?xml version="1.0" encoding="UTF-8"?>
<svg id="Calque_1" xmlns="http://www.w3.org/2000/svg" version="1.1" viewBox="0 0 24 18">
  <!-- Generator: Adobe Illustrator 29.0.0, SVG Export Plug-In . SVG Version: 2.1.0 Build 186)  -->
  <defs>
    <style>
      .st0 {
        fill: #fff;
        fill-rule: evenodd;
      }
    </style>
  </defs>
  <path class="st0" d="M11.1,0c-.3,0-.6.3-.9.4-.1,0-.3.3-.5.5-.2.2-.3.4-.4.4s-.4,0-.8-.2c-.8-.2-.8-.2-1-.2-.8,0-1.4.3-2,.9-.4.5-.7.9-.7,1.5,0,.1,0,.2,0,.2,0,0-.1,0-.2,0-.1,0-.2,0-.2,0,0,0-.7-1.4-.8-1.7-.3-.7-.7-1-1.4-1-.5,0-.9,0-1.2.4-.2.2-.2.2-.3.4v.2c-.1,0-.3,1.5-.3,1.5-.1.8-.2,1.6-.2,1.7-.2.9,0,1.7.5,2.3.2.2.2.2.8.6.3.2.5.3.5.3,0,0,0,0,0,.2-.1.2-.2.5-.3.8,0,.5,0,1.1.4,1.5.2.3.5.6.6.6s.9.6.9.6c-.2.3-.1.3-.1.7,0,.3,0,.4,0,.6.1.4.4.9.7,1.2.1.1.2.2.5.3.2,0,.4.2.6.2h.2c0,0,0,.3,0,.3,0,.6.2,1.3.7,1.8.3.3.7.6,1.3.7.3,0,.3,0,.8,0,.5,0,.6,0,.8,0,.3,0,.6-.2.9-.4.1,0,.2-.1.3-.1,0,0,.1,0,.4-.7.3-.6.4-.7.4-.9v-.2h2.1v.5l.5.7c.5.7.6.8.9,1,.2.1.5.2.9.3.2,0,.3,0,.7,0,.4,0,.5,0,.7,0,.7-.2,1.1-.4,1.5-1,.1-.2.3-.5.4-.7,0,0,0-.3,0-.6,0-.3,0-.5,0-.5,0,0,1-.5,1.1-.5,0,0,.2,0,.4-.4.3-.4.5-.9.5-1.3,0-.2,0-.5,0-.9,0,0,0,0,.4-.4.3-.2.5-.3.5-.3,0,0,.3-.2.5-.5.1-.2.3-.6.4-.8,0-.2,0-.3,0-.6,0-.4,0-.4,0-.6,0-.1-.1-.3-.2-.4,0-.2,0-.2,0-.2,0,0,.3-.2.5-.4.5-.3.5-.3.7-.5.5-.6.7-1.4.5-2.2,0-.1-.1-.8-.2-1.6-.1-.8-.2-1.5-.2-1.6-.1-.5-.4-.9-.8-1-.2-.1-.4-.2-.7-.2-.7,0-1.1.3-1.4.9,0,.1-.1.3-.1.3,0,0-.5,1.1-.6,1.2,0,0-.1.1-.2.2,0,.1,0,.1-.2.2,0,0-.2,0-.2,0,0,0,0,0,0-.2,0-.6-.3-1.1-.8-1.6-.3-.3-.5-.5-.9-.6-.7-.3-1.8-.3-2.6,0h-.2c0,0-.2-.2-.2-.2-.3-.3-.3-.4-.6-.5C13.2.1,12.6,0,11.6,0c-.3,0-.4,0-.5,0ZM7,9.5c0,1.2.4,2.6,1.6,2.5,1.1,0,1.4-1.4,1.4-2.5,0-1.1-.3-2.5-1.4-2.5-1.2,0-1.6,1.4-1.6,2.5ZM14,9.5c0,1.1.4,2.5,1.5,2.5,1.1,0,1.5-1.3,1.5-2.5,0-1.1-.4-2.5-1.5-2.5-1.1,0-1.5,1.4-1.5,2.5Z"/>
</svg>