<?xml version="1.0" encoding="UTF-8"?>
<svg id="Calque_1" xmlns="http://www.w3.org/2000/svg" version="1.1" viewBox="0 0 30 30">
  <!-- Generator: Adobe Illustrator 29.0.0, SVG Export Plug-In . SVG Version: 2.1.0 Build 186)  -->
  <defs>
    <style>
      .st0 {
        fill: #fff;
      }
    </style>
  </defs>
  <path class="st0" d="M23.1,26c.2,0,.5,0,.7-.2,0,0,.2,0,.2-.2h0c.3-.3.4-.6.4-.9,0-.4-.1-.7-.4-.9-.2-.2-.5-.4-.9-.4H7c-.3,0-.6.1-.9.4-.2.3-.4.6-.4.9s.1.7.4.9c0,0,.2.1.3.2.2.1.4.2.6.2h16ZM27,5.5l-4.6-1.5-3.8,4.9h0s-2.8,0-2.8,0v2.8h2.1c.7,0,1.2.2,1.7.6.5.4.8.9.7,1.6,0,.6-.2,1.1-.7,1.5-.5.4-1,.6-1.7.6h-2.2v-1.3s2.2,0,2.2,0c.3,0,.6,0,.9-.3.2-.2.3-.3.3-.6s0-.4-.3-.6c-.2-.2-.5-.3-.9-.3h-2.2v-1.3h-1.5v1.3h-2.2c-.3,0-.6,0-.9.3-.2.2-.3.3-.3.6s0,.4.3.6c.2.2.5.3.9.3h2.2v1.3h-2.2c-.7,0-1.2-.2-1.7-.6-.5-.4-.8-.9-.8-1.5s.2-1.1.7-1.6h0c.5-.4,1-.6,1.7-.6h2.1v-2.8h-2.8s0,0,0,0l-3.8-4.9-4.6,1.5c3.2,2.7,3.6,5.2,1.1,7.6l1.7,9.3h7.4v-1.5h-1.2c-.7,0-1.2-.2-1.7-.6-.5-.4-.8-.9-.8-1.5s.2-1.1.7-1.6h0c.5-.4,1-.6,1.7-.6h2.2v1.3h-2.2c-.3,0-.6,0-.9.3-.2.2-.3.3-.3.6s0,.4.3.6c.2.2.5.3.9.3h2.2v2.7h1.5v-2.7h2.2c.3,0,.6,0,.9-.3.2-.2.3-.3.3-.6s0-.4-.3-.6c-.2-.2-.5-.3-.9-.3h-2.2v-1.3h2.2c.7,0,1.2.2,1.7.6h0c.5.4.8,1,.7,1.6,0,.6-.2,1.1-.7,1.5-.5.4-1,.6-1.7.6h-1.2v1.5h7.4l1.7-9.3c-2.5-1.9-2.2-4.4,1.1-7.6Z"/>
</svg>