<?xml version="1.0" encoding="UTF-8"?>
<svg id="Calque_1" xmlns="http://www.w3.org/2000/svg" version="1.1" viewBox="0 0 30 30">
  <!-- Generator: Adobe Illustrator 29.0.0, SVG Export Plug-In . SVG Version: 2.1.0 Build 186)  -->
  <defs>
    <style>
      .st0 {
        fill: #fff;
        fill-rule: evenodd;
      }
    </style>
  </defs>
  <path class="st0" d="M15,25S3,18.4,3,10s2.9-6,6.6-6,4.1.9,5.4,2.3c1.3-1.4,3.3-2.3,5.4-2.3,3.7,0,6.6,2.6,6.6,6,0,8.4-12,15-12,15ZM15,20.3c-.9,0-1.6-.7-1.6-1.6v-3.1h-3.2c-.9,0-1.6-.7-1.6-1.6s.7-1.6,1.6-1.6h3.2v-3.1c0-.9.7-1.6,1.6-1.6s1.6.7,1.6,1.6v3.1h3.2c.9,0,1.6.7,1.6,1.6s-.7,1.6-1.6,1.6h-3.2v3.1c0,.9-.7,1.6-1.6,1.6Z"/>
</svg>