<?xml version="1.0" encoding="UTF-8"?>
<svg id="Calque_1" xmlns="http://www.w3.org/2000/svg" version="1.1" viewBox="0 0 24 24">
  <!-- Generator: Adobe Illustrator 29.0.0, SVG Export Plug-In . SVG Version: 2.1.0 Build 186)  -->
  <defs>
    <style>
      .st0 {
        fill: #fff;
      }
    </style>
  </defs>
  <path class="st0" d="M19.5,6.1c0,6.1-2.4,10.5-7.1,13.2V4.7c1.8,1.1,4.2,1.5,7.1,1.4Z"/>
  <path class="st0" d="M23.2,2.7c-4.6.1-8.4-.5-11.2-2.2C9.2,2.2,5.4,2.8.8,2.7c-.5,9.8,3,16.8,11.2,20.8,8.1-4,11.6-11,11.2-20.8ZM12,20.8C6.3,17.5,3.3,12.2,3.3,4.8c3.6.1,6.5-.4,8.7-1.7,2.1,1.3,5.1,1.8,8.6,1.7,0,7.4-2.9,12.7-8.6,16Z"/>
</svg>