<?xml version="1.0" encoding="UTF-8"?>
<svg id="Calque_1" xmlns="http://www.w3.org/2000/svg" version="1.1" viewBox="0 0 26 26">
  <!-- Generator: Adobe Illustrator 29.0.0, SVG Export Plug-In . SVG Version: 2.1.0 Build 186)  -->
  <defs>
    <style>
      .st0 {
        fill-rule: evenodd;
      }

      .st0, .st1 {
        fill: #fff;
      }
    </style>
  </defs>
  <path class="st1" d="M10.6,0v3.2h1.3v-.7c0-.6.5-1.1,1.1-1.1s1.1.5,1.1,1.1v.7h1.3V0h2.2v3.5c0,1.1-.9,1.9-1.9,1.9h-1.5v1.5h-2.2v-1.5h-1.5c-1.1,0-1.9-.9-1.9-1.9V0h2.2Z"/>
  <path class="st0" d="M1.5,13c0-.6.5-1.1,1.1-1.1h.7v-1.3H0v-2.2h3.5c1.1,0,1.9.9,1.9,1.9v1.5h2.2v-1.5c0-1.1.9-1.9,1.9-1.9h6.9c1.1,0,2,.9,2,1.9v1.5h2.2v-1.5c0-1.1.9-1.9,2-1.9h3.5v2.2h-3.2v1.3h.6c.6,0,1.1.5,1.1,1.1s-.5,1.1-1.1,1.1h-.6v1.3h3.2v2.2h-3.5c-1.1,0-2-.9-2-1.9v-1.5h-2.2v1.5c0,1.1-.9,1.9-2,1.9h-6.9c-1.1,0-1.9-.9-1.9-1.9v-1.5h-2.2v1.5c0,1.1-.9,1.9-1.9,1.9H0v-2.2h3.2v-1.3h-.7c-.6,0-1.1-.5-1.1-1.1ZM9.8,14.1v1.3h6.5v-1.3h-.6c-.6,0-1.1-.5-1.1-1.1s.5-1.1,1.1-1.1h.6v-1.3h-6.5v1.3h.6c.6,0,1.1.5,1.1,1.1s-.5,1.1-1.1,1.1h-.6Z"/>
  <path class="st1" d="M11.9,23.4c0,.6.5,1.1,1.1,1.1s1.1-.5,1.1-1.1v-.6h1.3v3.2h2.2v-3.5c0-1.1-.9-2-1.9-2h-1.5v-1.5h-2.2v1.5h-1.5c-1.1,0-1.9.9-1.9,2v3.5h2.2v-3.2h1.3v.6Z"/>
</svg>