<?xml version="1.0" encoding="UTF-8"?>
<svg id="Calque_1" xmlns="http://www.w3.org/2000/svg" version="1.1" viewBox="0 0 20 29">
  <!-- Generator: Adobe Illustrator 29.0.0, SVG Export Plug-In . SVG Version: 2.1.0 Build 186)  -->
  <defs>
    <style>
      .st0 {
        fill: #fff;
      }
    </style>
  </defs>
  <path class="st0" d="M1.3,12c-.9,0-1.3-1-.7-1.7L9.3.8c.4-.4,1.1-.4,1.5,0l8.7,9.5c.6.6.1,1.7-.7,1.7H1.3Z"/>
  <path class="st0" d="M5.2,22c-.9,0-1.3-1-.8-1.7l4.8-5.5c.4-.5,1.1-.5,1.5,0l4.8,5.5c.6.6.1,1.7-.8,1.7H5.2Z"/>
  <path class="st0" d="M10.8,25c-.4-.5-1.2-.5-1.6,0l-1.9,2.4c-.5.7,0,1.6.8,1.6h3.8c.8,0,1.3-1,.8-1.6l-1.9-2.4Z"/>
</svg>